# xmcd CD database file
#
# Track frame offsets:
#	150
#	32595
#	48319
#	61895
#	84702
#	99120
#	114041
#	131055
#	147070
#	161565
#	175453
#	190714
#	207163
#	226759
#	244540
#
# Disc length: 3485 seconds
#
# Revision: 0
# Processed by: cddbd v1.4PL0 Copyright (c) Steve Scherf et al.
# Submitted via: CDex 1.40Release
#
DISCID=b70d9b0f
DTITLE=Indians - Sacred Spirit - Die Gesänge der Indianer
DYEAR=1900
DGENRE=Native American
TTITLE0=Intro and Prelude - How the West was lost
TTITLE1=Tor-Cheney-Nahana - Winter Ceremony
TTITLE2=Ly-O-Lay Ale Loya - The counterclockwise circle dance
TTITLE3=Ya-Na-Hana - Celebrate wild rice
TTITLE4=Dawa - The cradlesong
TTITLE5=Gitchi-Manidoo Advice for the young
TTITLE6=Yeha-Noha - Wishes of happiness and prosperity
TTITLE7=Ta-Was-Ne - Elevation
TTITLE8=Heya-Hee - Interribal song to stop the rain
TTITLE9=Shamanic Chant No.5 - Heal the soul
TTITLE10=Yo-Hey-O-Hee - Brandishing the tomahawk
TTITLE11=unknown Track 12
TTITLE12=unknown Track 13
TTITLE13=unknownTrack 14
TTITLE14=unknown Track 15
EXTD=ID3G: 64
EXTT0=
EXTT1=
EXTT2=
EXTT3=
EXTT4=
EXTT5=
EXTT6=
EXTT7=
EXTT8=
EXTT9=
EXTT10=
EXTT11=
EXTT12=
EXTT13=
EXTT14=
PLAYORDER=
